<svg width="33" height="33" viewBox="0 0 33 33" fill="none" xmlns="http://www.w3.org/2000/svg">
<rect width="33" height="33" rx="4" fill="black"/>
<path d="M9.95136 26.1612C9.82141 26.1612 9.71606 26.0558 9.71606 25.9259V9.65106C9.71606 9.52111 9.82141 9.41576 9.95136 9.41576H11.4855C12.0053 9.41576 12.4267 8.99439 12.4267 8.47459V6.97059C12.4267 6.84064 12.532 6.73529 12.6619 6.73529H20.9255C21.0554 6.73529 21.1608 6.84064 21.1608 6.97059V8.47459C21.1608 8.99439 21.5822 9.41576 22.1019 9.41576H23.6662C23.7961 9.41576 23.9015 9.52111 23.9015 9.65106V17.8845C23.9015 18.0144 23.7961 18.1198 23.6662 18.1198H22.1019C21.5821 18.1198 21.1608 18.5411 21.1608 19.0609V20.5649C21.1608 20.6949 21.0554 20.8002 20.9255 20.8002H13.2643C13.1344 20.8002 13.029 20.9056 13.029 21.0355V25.9259C13.029 26.0558 12.9237 26.1612 12.7937 26.1612H9.95136ZM13.029 17.1616C13.029 17.2916 13.1344 17.3969 13.2643 17.3969H19.6172C20.137 17.3969 20.5584 16.9756 20.5584 16.4558V11.0798C20.5584 10.56 20.137 10.1386 19.6172 10.1386H13.9702C13.4504 10.1386 13.029 10.56 13.029 11.0798V17.1616Z" fill="white"/>
</svg>
